<svg xmlns="http://www.w3.org/2000/svg" width="960" height="620" viewBox="0 0 960 620" fill="none">
  <defs>
    <linearGradient id="bg" x1="120" y1="60" x2="830" y2="560" gradientUnits="userSpaceOnUse">
      <stop stop-color="#0EA587"/>
      <stop offset="1" stop-color="#FF8C64"/>
    </linearGradient>
  </defs>
  <rect width="960" height="620" rx="42" fill="url(#bg)"/>
  <circle cx="786" cy="136" r="76" fill="white" fill-opacity="0.2"/>
  <circle cx="170" cy="522" r="94" fill="white" fill-opacity="0.14"/>

  <rect x="126" y="130" width="506" height="340" rx="26" fill="#F9FFFD"/>
  <rect x="158" y="172" width="208" height="18" rx="9" fill="#D7ECE7"/>
  <rect x="158" y="206" width="304" height="14" rx="7" fill="#E9F5F2"/>

  <rect x="158" y="252" width="442" height="84" rx="16" fill="#F2FAF7"/>
  <circle cx="199" cy="294" r="22" fill="#16A085"/>
  <rect x="238" y="276" width="178" height="14" rx="7" fill="#CFE9E1"/>
  <rect x="238" y="300" width="236" height="12" rx="6" fill="#DDEFEA"/>

  <rect x="158" y="356" width="136" height="84" rx="16" fill="#E6F5F0"/>
  <rect x="308" y="356" width="136" height="84" rx="16" fill="#FFF0EA"/>
  <rect x="458" y="356" width="142" height="84" rx="16" fill="#E9F2FF"/>

  <rect x="530" y="84" width="292" height="214" rx="20" fill="#112823" fill-opacity="0.9"/>
  <rect x="562" y="120" width="194" height="14" rx="7" fill="#2E4A44"/>
  <rect x="562" y="149" width="158" height="12" rx="6" fill="#3E5F58"/>
  <rect x="562" y="190" width="228" height="72" rx="14" fill="#1A3932"/>
  <path d="M598 228C610 214 622 214 634 228C646 242 658 242 670 228C682 214 694 214 706 228C718 242 730 242 742 228" stroke="#6DE9C7" stroke-width="9" stroke-linecap="round"/>

  <rect x="704" y="338" width="152" height="144" rx="22" fill="#FFFFFF" fill-opacity="0.88"/>
  <circle cx="780" cy="388" r="30" fill="#FF8B67"/>
  <rect x="740" y="432" width="82" height="12" rx="6" fill="#CEDFDC"/>
</svg>
